<svg xmlns="http://www.w3.org/2000/svg" xmlns:xlink="http://www.w3.org/1999/xlink"><symbol viewBox="0 0 37 37" fill="none" id="icon-arrow-btn" xmlns="http://www.w3.org/2000/svg"><path d="M8.732.732a2.5 2.5 0 0 1 3.535 0l15.91 15.91a2.5 2.5 0 0 1 0 3.535l-15.91 15.91a2.5 2.5 0 0 1-3.535-3.535L22.875 18.41 8.732 4.267a2.5 2.5 0 0 1 0-3.535Z" fill="currentColor"/></symbol><symbol viewBox="0 0 64 64" fill="none" id="icon-block" xmlns="http://www.w3.org/2000/svg"><path d="M32.05 4.149C16.805 4.049 4.294 16.34 4.136 31.715 3.98 47.222 16.35 59.717 31.981 59.868c15.128.145 27.73-12.302 27.885-27.552.16-15.508-12.173-28.064-27.817-28.167Zm16.439 15.196c5.518 7.53 5.305 19.882-2.152 27.199-7.793 7.649-20.202 7.07-26.986 1.936l-.228-.174.203-.202L48.11 19.316l.206-.206.172.235Zm-25.332 28.54c5.996 3.084 15.392 2.853 21.444-3.127l.29-.295c3.233-3.356 4.654-7.536 4.907-11.492.244-3.81-.597-7.39-1.922-9.805-8.232 8.228-16.486 16.482-24.72 24.718ZM17.359 17.76c7.161-7.41 19.534-7.896 27.305-2.248l.237.173-.207.206c-9.606 9.606-19.196 19.2-28.78 28.781l-.202.2-.173-.224c-2.507-3.236-3.965-7.973-3.844-12.885.12-4.915 1.822-10.027 5.664-14.003Zm23.562-1.604c-6.261-3.22-16.244-2.944-22.364 3.982-2.905 3.289-4.176 7.352-4.361 11.2-.178 3.704.653 7.188 1.976 9.567 8.24-8.239 16.487-16.49 24.75-24.75Zm21.447 17.627-.006.025c-.02.095-.048.2-.067.28-.02.086-.036.163-.042.235-.303 4.174-1.394 8.133-3.402 11.812-4.701 8.602-11.884 13.87-21.522 15.732-1.17.225-2.38.336-3.538.498l-.017.003h-3.558l-.027-.006c-.086-.02-.182-.048-.25-.066a1.12 1.12 0 0 0-.196-.038c-5.03-.36-9.695-1.862-13.916-4.58l-.408-.267C8.417 52.74 4.012 46.309 2.293 38.126l-.158-.796c-.218-1.173-.339-2.377-.5-3.54l-.003-.016v-3.557l.005-.025c.02-.095.05-.202.069-.28.02-.087.036-.162.04-.232v-.002c.3-4.152 1.383-8.098 3.375-11.758C9.816 9.292 17.006 3.997 26.67 2.135c1.172-.225 2.378-.34 3.538-.5l.017-.003h3.558l.027.006c.086.02.182.048.25.066.076.02.139.033.196.038 5.756.42 10.989 2.315 15.622 5.744 6.498 4.81 10.526 11.212 11.986 19.185l.146.884c.133.887.232 1.782.354 2.654l.003.017v3.557Z" fill="currentColor" stroke="currentColor" stroke-width=".5"/></symbol><symbol viewBox="0 0 24 24" fill="none" id="icon-cross"><path d="M18 6 6 18M6 6l12 12" stroke="currentColor" stroke-width="2" stroke-linecap="round" stroke-linejoin="round"/></symbol><symbol viewBox="0 0 14 12" fill="none" id="icon-dropdown"><path d="M6.928 12 0 0h13.856L6.928 12Z" fill="currentColor"/></symbol><symbol viewBox="0 0 24 24" fill="none" id="icon-email" xmlns="http://www.w3.org/2000/svg"><path d="M21.886 5.968a.561.561 0 0 0-.787-.115l-9.073 6.773a.187.187 0 0 1-.225 0L2.906 5.823a.563.563 0 0 0-.683.895l6.994 5.35L2.3 17.28a.566.566 0 1 0 .677.907l7.168-5.411.971.75a1.312 1.312 0 0 0 1.581.011l1.02-.761 7.252 5.411a.562.562 0 1 0 .674-.902l-6.987-5.22 7.116-5.315a.563.563 0 0 0 .114-.782Z" fill="currentColor"/><path d="M21.188 3.563H2.813A2.813 2.813 0 0 0 0 6.374v11.25a2.812 2.812 0 0 0 2.813 2.813h18.375A2.812 2.812 0 0 0 24 17.625V6.375a2.812 2.812 0 0 0-2.813-2.813Zm1.687 14.062a1.687 1.687 0 0 1-1.688 1.688H2.813a1.687 1.687 0 0 1-1.687-1.688V6.375a1.687 1.687 0 0 1 1.688-1.688h18.375a1.687 1.687 0 0 1 1.687 1.688v11.25Z" fill="currentColor"/></symbol><symbol viewBox="0 0 24 24" fill="none" id="icon-location" xmlns="http://www.w3.org/2000/svg"><path d="M16.43 1.31a8.148 8.148 0 0 0-8.86 0C4.102 3.557 2.993 7.936 4.988 11.494L12 24l7.012-12.506c1.995-3.558.887-7.937-2.582-10.184Zm1.197 9.45L12 20.794 6.374 10.76c-1.6-2.857-.712-6.37 2.072-8.172a6.526 6.526 0 0 1 7.108-.002c2.783 1.805 3.674 5.317 2.073 8.174Z" fill="currentColor"/><path d="M11.947 4C9.771 4 8 5.723 8 7.84c0 2.116 1.771 3.84 3.947 3.84s3.947-1.724 3.947-3.84c0-2.117-1.77-3.84-3.947-3.84Zm0 6.144c-1.306 0-2.368-1.034-2.368-2.304 0-1.27 1.062-2.304 2.368-2.304 1.306 0 2.368 1.034 2.368 2.304 0 1.27-1.062 2.304-2.368 2.304Z" fill="currentColor"/></symbol><symbol viewBox="0 0 24 24" fill="none" id="icon-phone" xmlns="http://www.w3.org/2000/svg"><path stroke="currentColor" stroke-width="1.5" stroke-linejoin="round" stroke-miterlimit="133.333" d="M.8 5.1c0 10 8.1 18.1 18.1 18.1.8 0 1.6-.1 2.4-.2 1.1-.2 1.9-1.2 1.9-2.3v-3.2c0-1.1-.7-2-1.7-2.4l-3.9-1.3c-1-.3-2.1.3-2.3 1.3-.3 1.4-2 1.8-3 .8L8 11.8c-1-1-.5-2.7.8-3 1-.3 1.6-1.3 1.3-2.3l-1.3-4C8.5 1.5 7.5.8 6.4.8H3.3C2.1.8 1.1 1.6 1 2.7.8 3.5.8 4.3.8 5.1z"/></symbol><symbol viewBox="0 0 20 20" fill="none" id="icon-search"><path d="M7.773 0a7.774 7.774 0 1 0 4.44 14.155l.001-.001 5.765 5.765a.27.27 0 0 0 .387 0l1.554-1.554a.277.277 0 0 0-.001-.387l-5.764-5.764A7.774 7.774 0 0 0 7.774 0Zm0 13.717a5.944 5.944 0 1 1 0-11.888 5.944 5.944 0 0 1 0 11.888Z" fill="currentColor"/></symbol><symbol viewBox="0 0 64 64" fill="none" id="icon-switch" xmlns="http://www.w3.org/2000/svg"><path d="M37.334 17.375a9.333 9.333 0 1 0 18.666 0c0-5.185-4.17-9.354-9.312-9.354-5.178.01-9.355 4.195-9.355 9.354Zm1.822-9.37-21.82.016A9.354 9.354 0 0 0 8 17.375a9.333 9.333 0 0 0 9.334 9.334h21.79a11.977 11.977 0 0 1-4.457-9.334c0-3.787 1.752-7.166 4.49-9.37Zm7.76-2.648c6.523.134 11.75 5.445 11.75 11.977 0 6.669-5.372 12.041-12 12.041H17.335c-6.628 0-12-5.372-12-12 0-6.63 5.367-12.008 11.998-12.02l29.334-.022c.086 0 .17.008.25.024ZM17.084 34.69c.082-.015.166-.023.251-.023l29.334.02c6.631.014 11.999 5.392 11.999 12.022 0 6.627-5.373 12-12 12H17.333c-6.627 0-12-5.373-12-12.042 0-6.532 5.228-11.843 11.75-11.977Zm9.584 12.019c0-5.16-4.177-9.345-9.354-9.355C12.17 37.354 8 41.524 8 46.71a9.333 9.333 0 0 0 18.667 0Zm-1.823-9.37a11.999 11.999 0 0 1 4.49 9.37c0 3.77-1.739 7.133-4.457 9.333h21.79A9.333 9.333 0 0 0 56 46.708a9.354 9.354 0 0 0-9.336-9.354l-21.82-.015Z" fill="currentColor"/></symbol><symbol viewBox="0 0 64 64" fill="none" id="icon-target" xmlns="http://www.w3.org/2000/svg"><path d="M54.247 11.167A4.969 4.969 0 0 0 57 12c2.757 0 5-2.243 5-5s-2.243-5-5-5-5 2.243-5 5c0 1.017.309 1.962.833 2.753L44.5 18.086l-8.333-8.333A4.969 4.969 0 0 0 37 7c0-2.757-2.243-5-5-5s-5 2.243-5 5c0 1.017.309 1.962.833 2.753L19.5 18.086l-8.333-8.333A4.969 4.969 0 0 0 12 7c0-2.757-2.243-5-5-5S2 4.243 2 7s2.243 5 5 5c.123 0 .238-.027.358-.036l5.993 12.271-3.598 3.598A4.969 4.969 0 0 0 7 27c-2.757 0-5 2.243-5 5s2.243 5 5 5a5.01 5.01 0 0 0 4.899-4h5.733l3.923 8.032L9.753 52.833A4.969 4.969 0 0 0 7 52c-2.757 0-5 2.243-5 5s2.243 5 5 5 5-2.243 5-5c0-.123-.027-.238-.036-.358l13.899-6.788 2.076 4.251A4.956 4.956 0 0 0 27 57c0 2.757 2.243 5 5 5s5-2.243 5-5a5.01 5.01 0 0 0-4-4.899v-5.733l8.032-3.923 11.801 11.801A4.974 4.974 0 0 0 52 57c0 2.757 2.243 5 5 5s5-2.243 5-5-2.243-5-5-5c-.451 0-.879.079-1.295.191l-7.054-13.467 5.454-2.664A4.95 4.95 0 0 0 57 37c2.757 0 5-2.243 5-5s-2.243-5-5-5a4.969 4.969 0 0 0-2.753.833L45.914 19.5l8.333-8.333ZM57 4c1.654 0 3 1.346 3 3s-1.346 3-3 3-3-1.346-3-3 1.346-3 3-3ZM34.414 31l5.206-5.206L42.347 31h-7.933Zm8.981 2 2.53 4.831-4.489 2.192L34.414 33h8.981ZM33 29.586V13.155l5.648 10.783L33 29.586Zm1.335-18.192c.14-.075.286-.14.418-.227l8.333 8.333-2.956 2.956-5.795-11.062ZM32 4c1.654 0 3 1.346 3 3s-1.346 3-3 3-3-1.346-3-3 1.346-3 3-3Zm-2.753 7.167a4.961 4.961 0 0 0 1.753.732v17.687L20.914 19.5l8.333-8.333ZM29.586 31H18.88l-3.106-6.36 3.726-3.726L29.586 31ZM4 7c0-1.654 1.346-3 3-3s3 1.346 3 3-1.346 3-3 3-3-1.346-3-3Zm5.311 4.407c.148-.078.302-.148.442-.24l8.333 8.333-3.24 3.24-5.535-11.333ZM7 35c-1.654 0-3-1.346-3-3s1.346-3 3-3 3 1.346 3 3-1.346 3-3 3Zm4.899-4a4.961 4.961 0 0 0-.732-1.753l3.112-3.112L16.655 31h-4.756Zm7.958 2h9.729l-6.537 6.537L19.857 33ZM31 34.414V45.12l-4.218 2.06-2.805-5.743L31 34.414ZM7 60c-1.654 0-3-1.346-3-3s1.346-3 3-3 3 1.346 3 3-1.346 3-3 3Zm4.407-5.311c-.078-.148-.148-.302-.24-.442l11.315-11.315 2.503 5.125-13.578 6.632ZM35 57c0 1.654-1.346 3-3 3s-3-1.346-3-3 1.346-3 3-3 3 1.346 3 3Zm-4-4.899a4.946 4.946 0 0 0-1.519.605l-1.821-3.729L31 47.345v4.756Zm2-7.958v-9.729l6.537 6.537L33 44.143ZM60 57c0 1.654-1.346 3-3 3s-3-1.346-3-3 1.346-3 3-3 3 1.346 3 3Zm-6.726-5.14L42.932 41.518l3.922-1.915 6.42 12.257ZM45.653 33h6.449c.112.548.33 1.052.605 1.519l-4.983 2.434L45.653 33ZM57 29c1.654 0 3 1.346 3 3s-1.346 3-3 3-3-1.346-3-3 1.346-3 3-3Zm-4.167.247A4.961 4.961 0 0 0 52.101 31h-7.496l-3.503-6.688 3.398-3.398 8.333 8.333Z" fill="currentColor"/></symbol><symbol viewBox="0 0 65 65" fill="none" id="icon-video-play" xmlns="http://www.w3.org/2000/svg"><path d="M32.5 0C14.58 0 0 14.58 0 32.5S14.58 65 32.5 65 65 50.42 65 32.5 50.42 0 32.5 0Zm11.683 33.953L26.3 44.756a1.684 1.684 0 0 1-2.55-1.454V21.698a1.684 1.684 0 0 1 2.55-1.454l17.883 10.803a1.7 1.7 0 0 1 0 2.906Z" fill="currentColor"/></symbol></svg>