<svg width="31" height="31" viewBox="0 0 31 31" fill="none" xmlns="http://www.w3.org/2000/svg">
<circle cx="15.1648" cy="15.1648" r="15.1648" fill="white"/>
<circle cx="15.1635" cy="15.1645" r="6.72402" stroke="#505050" stroke-width="0.601018"/>
<circle cx="16.8813" cy="15.1645" r="1.85984" fill="#505050"/>
<path d="M17.1749 26.9407C16.9669 26.9757 16.7688 26.9742 16.5806 26.9363C16.3946 26.8953 16.2262 26.8233 16.0752 26.7204C15.9264 26.6144 15.8014 26.483 15.7002 26.3262C15.599 26.1694 15.5314 25.9896 15.4974 25.7868C15.4633 25.584 15.4685 25.392 15.5129 25.2108C15.5573 25.0295 15.6341 24.8656 15.7431 24.719C15.8517 24.5697 15.9875 24.4467 16.1503 24.3498C16.3153 24.2499 16.5018 24.1825 16.7098 24.1476C16.9204 24.1122 17.1203 24.1161 17.3093 24.1592C17.5005 24.1993 17.6703 24.279 17.8187 24.3985L17.6064 24.6868C17.4841 24.595 17.3535 24.5341 17.2148 24.5039C17.0756 24.4711 16.9319 24.4672 16.7837 24.4921C16.6303 24.5178 16.4917 24.5679 16.3678 24.6421C16.2465 24.716 16.1457 24.8078 16.0652 24.9175C15.9847 25.0273 15.9281 25.1517 15.8953 25.2909C15.8647 25.427 15.8621 25.5705 15.8874 25.7213C15.9127 25.8721 15.9623 26.0082 16.0361 26.1294C16.1121 26.2477 16.2061 26.3455 16.318 26.423C16.4299 26.5004 16.5552 26.5542 16.694 26.5844C16.8353 26.6141 16.9827 26.6161 17.1361 26.5903C17.2843 26.5655 17.419 26.5161 17.5403 26.4423C17.6611 26.3658 17.7642 26.263 17.8494 26.1337L18.1442 26.3368C18.0429 26.4982 17.9087 26.6304 17.7416 26.7333C17.577 26.8358 17.3881 26.9049 17.1749 26.9407Z" fill="#505050"/>
<path d="M12.0816 24.9625L13.4757 25.2512L13.4075 25.5803L12.0134 25.2917L12.0816 24.9625ZM11.867 26.1741L13.4471 26.5012L13.3773 26.8381L11.41 26.4308L11.9713 23.72L13.8844 24.1161L13.8146 24.453L12.2888 24.1371L11.867 26.1741Z" fill="#505050"/>
<path d="M20.6099 22.4901L20.9487 22.2862L22.3762 24.6581L22.0373 24.862L20.6099 22.4901ZM20.6752 25.6818L20.3363 25.8857L18.9089 23.5138L19.2477 23.3099L20.6752 25.6818ZM21.4316 23.7864L20.0051 24.645L19.8276 24.3502L21.2542 23.4917L21.4316 23.7864Z" fill="#505050"/>
<path d="M7.95808 24.6466L9.26447 22.6045L8.46495 22.093L8.65036 21.8032L10.5792 23.0371L10.3938 23.3269L9.59428 22.8154L8.28788 24.8576L7.95808 24.6466Z" fill="#505050"/>
<path d="M11.3801 5.93077C11.1764 5.98536 10.9733 6.007 10.7711 5.99569C10.5681 5.98184 10.3998 5.93958 10.2663 5.86892L10.3278 5.5331C10.4535 5.59493 10.6032 5.63399 10.7768 5.65025C10.9503 5.66652 11.1225 5.65179 11.2931 5.60607C11.4484 5.56445 11.5697 5.51284 11.6569 5.45126C11.7441 5.38968 11.8025 5.32218 11.8319 5.24878C11.8607 5.17283 11.8645 5.09539 11.8434 5.01644C11.8188 4.92476 11.7685 4.8591 11.6923 4.81945C11.6188 4.77912 11.5291 4.75536 11.4235 4.74819C11.3197 4.73778 11.2071 4.7352 11.0857 4.74044C10.9643 4.74568 10.8406 4.74744 10.7145 4.74572C10.5904 4.74078 10.4728 4.72453 10.3617 4.69698C10.2531 4.66875 10.1576 4.61791 10.0751 4.54448C9.99201 4.46849 9.93133 4.35919 9.89312 4.21658C9.85627 4.07906 9.85815 3.94345 9.89874 3.80975C9.94121 3.67281 10.0284 3.54984 10.1602 3.44082C10.2939 3.32857 10.4779 3.24106 10.7122 3.17828C10.8675 3.13665 11.027 3.11574 11.1907 3.11555C11.3545 3.11535 11.5026 3.13844 11.6351 3.18481L11.5909 3.52419C11.4559 3.4785 11.3202 3.45616 11.184 3.45717C11.0471 3.45563 10.9188 3.4709 10.7992 3.50297C10.6489 3.54323 10.5305 3.59543 10.444 3.65956C10.3574 3.72369 10.2998 3.79373 10.271 3.86968C10.2448 3.94494 10.2422 4.02205 10.2634 4.10099C10.2886 4.19522 10.338 4.2625 10.4116 4.30283C10.4878 4.34248 10.5774 4.36623 10.6805 4.37409C10.7861 4.38127 10.9 4.38351 11.0221 4.38081C11.1435 4.37557 11.266 4.37415 11.3894 4.37655C11.5154 4.37827 11.6327 4.39325 11.7413 4.42148C11.8524 4.44903 11.9492 4.49952 12.0316 4.57296C12.1141 4.6464 12.1741 4.75315 12.2116 4.89321C12.2478 5.02818 12.2446 5.16414 12.2022 5.30107C12.159 5.43546 12.0693 5.55912 11.9331 5.67205C11.7987 5.78175 11.6144 5.86799 11.3801 5.93077Z" fill="#505050"/>
<path d="M14.2922 5.43213V2.66383H15.534C15.853 2.66383 16.0982 2.72842 16.2696 2.85761C16.4409 2.98416 16.5266 3.15817 16.5266 3.37963C16.5266 3.52991 16.4923 3.65646 16.4238 3.75929C16.3579 3.86211 16.2682 3.9412 16.1549 3.99657C16.0415 4.05193 15.9189 4.07962 15.7871 4.07962L15.8583 3.96098C16.0165 3.96098 16.1562 3.98866 16.2775 4.04403C16.3987 4.09939 16.495 4.18112 16.5662 4.28922C16.6373 4.39468 16.6729 4.5265 16.6729 4.68469C16.6729 4.92197 16.5833 5.10652 16.404 5.23835C16.2274 5.36754 15.9637 5.43213 15.6131 5.43213H14.2922ZM14.6877 5.1118H15.5973C15.8161 5.1118 15.9835 5.07489 16.0995 5.00107C16.2155 4.92724 16.2735 4.81124 16.2735 4.65305C16.2735 4.49223 16.2155 4.3749 16.0995 4.30108C15.9835 4.22726 15.8161 4.19035 15.5973 4.19035H14.6521V3.87002H15.4984C15.6988 3.87002 15.8543 3.83311 15.965 3.75929C16.0758 3.68546 16.1311 3.57473 16.1311 3.42709C16.1311 3.27945 16.0758 3.16872 15.965 3.09489C15.8543 3.02107 15.6988 2.98416 15.4984 2.98416H14.6877V5.1118Z" fill="#505050"/>
<path d="M19.0162 5.97533L19.7327 3.30136L20.1147 3.40371L19.3982 6.07768L19.0162 5.97533Z" fill="#505050"/>
</svg>
