<svg viewBox="0 0 64 64" fill="none" xmlns="http://www.w3.org/2000/svg">
<path d="M32.0493 4.14893C16.8062 4.04864 4.29508 16.3408 4.13721 31.7153C3.97961 47.2218 16.3497 59.7172 31.981 59.8677C47.1093 60.0132 59.7103 47.566 59.8657 32.3159C60.0257 16.8084 47.693 4.25183 32.0493 4.14893ZM48.4888 19.3452C54.0066 26.8756 53.7935 39.2265 46.3374 46.5435C38.5441 54.1926 26.135 53.6137 19.3511 48.48L19.1226 48.3062L19.3257 48.104C28.9009 38.5288 38.5091 28.9177 48.1108 19.3159L48.3169 19.1099L48.4888 19.3452ZM23.1567 47.8843C29.1533 50.969 38.5488 50.7378 44.6011 44.7583L44.8911 44.4634C48.1239 41.1069 49.5447 36.9272 49.7983 32.9712C50.0425 29.1619 49.2006 25.5801 47.8755 23.1655C39.6443 31.3944 31.3903 39.6484 23.1567 47.8843ZM17.3589 17.7603C24.5201 10.3501 36.8929 9.86376 44.6636 15.5122L44.9009 15.6851L44.6938 15.8911C35.0876 25.4974 25.4982 35.0901 15.9136 44.6724L15.7124 44.8726L15.5386 44.6479C13.0323 41.4117 11.5744 36.6748 11.6948 31.7632C11.8154 26.8477 13.5173 21.7361 17.3589 17.7603ZM40.9214 16.1558C34.66 12.9365 24.6772 13.2119 18.5571 20.1382C15.6519 23.4268 14.3807 27.4898 14.1958 31.3384C14.0179 35.0424 14.8492 38.5263 16.1724 40.9048C24.4111 32.666 32.6594 24.4155 40.9214 16.1558ZM62.3677 33.7827L62.3618 33.8081C62.3419 33.9027 62.3144 34.0077 62.2954 34.0874C62.2747 34.1744 62.2591 34.2508 62.2534 34.3228C61.9497 38.4966 60.8595 42.4564 58.8511 46.1353H58.8501C54.1499 54.7369 46.9674 60.0045 37.3286 61.8667C36.1595 62.0923 34.9498 62.2032 33.7905 62.3647L33.7739 62.3677H30.2163L30.189 62.3618C30.1029 62.3425 30.0072 62.3143 29.939 62.2964C29.8629 62.2764 29.8001 62.2626 29.7427 62.2583V62.2573C24.7127 61.8972 20.0484 60.3957 15.8267 57.6772L15.4194 57.4106C8.41681 52.7414 4.01236 46.3087 2.29346 38.1265L2.13525 37.3296C1.91712 36.1565 1.79624 34.9528 1.63428 33.7905L1.63232 33.7739V30.2173L1.63721 30.1919C1.65725 30.0967 1.68652 29.9904 1.70557 29.9116C1.72655 29.8248 1.74198 29.7501 1.74658 29.6802V29.6782C2.04533 25.5256 3.12895 21.5803 5.12061 17.9204C9.81588 9.29225 17.0057 3.9975 26.6714 2.13525C27.8429 1.90969 29.0493 1.79594 30.2095 1.63428L30.2261 1.63232H33.7837L33.811 1.63818C33.8972 1.65747 33.9928 1.68567 34.061 1.70361C34.1371 1.72363 34.1999 1.73741 34.2573 1.7417L34.2563 1.74268C40.0125 2.16285 45.2455 4.05723 49.8794 7.48584C56.3774 12.2962 60.4051 18.6982 61.8647 26.6714L62.0112 27.5552C62.1443 28.4425 62.2432 29.3373 62.3647 30.2095L62.3677 30.2261V33.7827Z" fill="currentColor" stroke="currentColor" stroke-width="0.5"/>
</svg>
