<svg viewBox="0 0 24 24" fill="none" xmlns="http://www.w3.org/2000/svg">
<path d="M21.8863 5.96771C21.8422 5.90848 21.7867 5.85852 21.7232 5.82071C21.6598 5.7829 21.5894 5.75797 21.5163 5.74735C21.4432 5.73673 21.3687 5.74062 21.297 5.75881C21.2254 5.777 21.1581 5.80912 21.0988 5.85334L12.0257 12.6258C11.9933 12.6502 11.9538 12.6633 11.9132 12.6633C11.8727 12.6633 11.8332 12.6502 11.8007 12.6258L2.90572 5.82334C2.847 5.77853 2.78002 5.74572 2.70862 5.72679C2.63721 5.70786 2.56278 5.70318 2.48956 5.71302C2.41635 5.72286 2.34579 5.74702 2.28192 5.78412C2.21804 5.82123 2.1621 5.87055 2.11729 5.92928C2.07247 5.988 2.03966 6.05498 2.02073 6.12638C2.00181 6.19779 1.99713 6.27222 2.00696 6.34544C2.0168 6.41865 2.04096 6.48921 2.07807 6.55308C2.11517 6.61696 2.1645 6.6729 2.22322 6.71772L9.21697 12.0671L2.3001 17.2796C2.24051 17.324 2.19026 17.3798 2.15222 17.4436C2.11417 17.5075 2.08908 17.5782 2.07837 17.6518C2.06767 17.7254 2.07155 17.8003 2.08981 17.8724C2.10807 17.9444 2.14034 18.0122 2.18479 18.0718C2.22923 18.1314 2.28497 18.1816 2.34884 18.2197C2.4127 18.2577 2.48344 18.2828 2.557 18.2935C2.63056 18.3042 2.70551 18.3003 2.77757 18.2821C2.84963 18.2638 2.91739 18.2315 2.97697 18.1871L10.1451 12.7758L11.1163 13.5258C11.3428 13.6992 11.6196 13.7941 11.9048 13.7961C12.19 13.7981 12.4681 13.7072 12.697 13.5371L13.717 12.7758L20.9695 18.1871C21.0287 18.2313 21.096 18.2634 21.1677 18.2816C21.2393 18.2997 21.3138 18.3036 21.3869 18.293C21.46 18.2824 21.5304 18.2575 21.5938 18.2197C21.6573 18.1819 21.7128 18.1319 21.757 18.0727C21.8012 18.0135 21.8333 17.9462 21.8514 17.8745C21.8696 17.8029 21.8735 17.7284 21.8629 17.6553C21.8523 17.5822 21.8273 17.5118 21.7895 17.4483C21.7517 17.3848 21.7018 17.3294 21.6426 17.2852L14.6563 12.0652L21.772 6.74959C21.89 6.66047 21.9682 6.52845 21.9896 6.38212C22.011 6.23578 21.9739 6.08691 21.8863 5.96771Z" fill="currentColor"/>
<path d="M21.1875 3.5625H2.8125C2.06658 3.5625 1.35121 3.85882 0.823762 4.38626C0.296316 4.91371 0 5.62908 0 6.375L0 17.625C0 18.3709 0.296316 19.0863 0.823762 19.6137C1.35121 20.1412 2.06658 20.4375 2.8125 20.4375H21.1875C21.9334 20.4375 22.6488 20.1412 23.1762 19.6137C23.7037 19.0863 24 18.3709 24 17.625V6.375C24 5.62908 23.7037 4.91371 23.1762 4.38626C22.6488 3.85882 21.9334 3.5625 21.1875 3.5625ZM22.875 17.625C22.875 18.0726 22.6972 18.5018 22.3807 18.8182C22.0643 19.1347 21.6351 19.3125 21.1875 19.3125H2.8125C2.36495 19.3125 1.93572 19.1347 1.61926 18.8182C1.30279 18.5018 1.125 18.0726 1.125 17.625V6.375C1.125 5.92745 1.30279 5.49823 1.61926 5.18176C1.93572 4.86529 2.36495 4.6875 2.8125 4.6875H21.1875C21.6351 4.6875 22.0643 4.86529 22.3807 5.18176C22.6972 5.49823 22.875 5.92745 22.875 6.375V17.625Z" fill="currentColor"/>
</svg>
