<svg viewBox="0 0 24 24" fill="none" xmlns="http://www.w3.org/2000/svg">
<path d="M16.4301 1.30974C13.7381 -0.43658 10.26 -0.43658 7.56961 1.30974C4.10247 3.55676 2.99254 7.93562 4.9882 11.4943L11.9998 23.9996L19.0115 11.4943C21.0071 7.93562 19.8988 3.55676 16.4301 1.30974ZM17.6268 10.7601L12.0014 20.7942L6.37442 10.7601C4.77348 7.90337 5.66237 4.39076 8.44587 2.58761C9.5258 1.88724 10.762 1.53552 11.9998 1.53552C13.2377 1.53552 14.4739 1.8857 15.5538 2.58607C18.3373 4.39076 19.2278 7.90337 17.6268 10.7601Z" fill="currentColor"/>
<path d="M11.9471 4C9.77146 4 8 5.72328 8 7.83975C8 9.95623 9.77146 11.6795 11.9471 11.6795C14.1228 11.6795 15.8942 9.95623 15.8942 7.83975C15.8942 5.72328 14.1243 4 11.9471 4ZM11.9471 10.1436C10.6414 10.1436 9.57884 9.10995 9.57884 7.83975C9.57884 6.56956 10.6414 5.5359 11.9471 5.5359C13.2528 5.5359 14.3154 6.56956 14.3154 7.83975C14.3154 9.10995 13.2528 10.1436 11.9471 10.1436Z" fill="currentColor"/>
</svg>
