<svg viewBox="0 0 20 20" fill="none">
<path d="M7.77323 0C3.48059 0 0 3.48059 0 7.77327C0 12.0659 3.48059 15.5465 7.77326 15.5465C9.42396 15.5465 10.9548 15.0317 12.2132 14.1547L12.2141 14.1537L17.9791 19.9188C18.0861 20.0257 18.2562 20.0285 18.3659 19.9188L19.9197 18.365C20.0267 18.258 20.0212 18.0806 19.9188 17.9782L14.1546 12.2141C15.0316 10.9548 15.5465 9.42393 15.5465 7.77327C15.5465 3.48059 12.0659 0 7.77323 0ZM7.77323 13.7175C4.49016 13.7175 1.82898 11.0563 1.82898 7.77327C1.82898 4.4902 4.4902 1.82901 7.77323 1.82901C11.0563 1.82901 13.7175 4.4902 13.7175 7.77327C13.7175 11.0563 11.0563 13.7175 7.77323 13.7175Z" fill="currentColor"/>
</svg>
