<svg viewBox="0 0 64 64" fill="none" xmlns="http://www.w3.org/2000/svg">
<path d="M37.3335 17.3751C37.3335 22.5298 41.5122 26.7085 46.6668 26.7085C51.8215 26.7085 56.0002 22.5298 56.0002 17.3751C56.0002 12.1903 51.8308 8.02095 46.6876 8.02095C41.5104 8.03104 37.3335 12.2161 37.3335 17.3751ZM39.1564 8.00549L17.3361 8.02097C12.177 8.03104 8.00016 12.2161 8.00016 17.3751C8.00016 22.5298 12.1788 26.7085 17.3335 26.7085H39.1237C36.4051 24.5085 34.6668 21.1448 34.6668 17.3751C34.6668 13.5879 36.4185 10.209 39.1564 8.00549ZM46.9169 5.3569C53.4391 5.49089 58.6668 10.8017 58.6668 17.3335C58.6668 24.0025 53.2942 29.3751 46.6668 29.3751H17.3335C10.7061 29.3751 5.3335 24.0025 5.3335 17.3751C5.3335 10.7454 10.7011 5.36725 17.3325 5.35431L46.6659 5.3335C46.7517 5.33344 46.8356 5.34148 46.9169 5.3569ZM17.0834 34.6902C17.1647 34.6748 17.2486 34.6668 17.3344 34.6668L46.6678 34.6876C53.2992 34.7006 58.6668 40.0787 58.6668 46.7085C58.6668 53.3359 53.2942 58.7085 46.6668 58.7085H17.3335C10.7061 58.7085 5.3335 53.3359 5.3335 46.6668C5.3335 40.135 10.5612 34.8242 17.0834 34.6902ZM26.6668 46.7085C26.6668 41.5494 22.4899 37.3644 17.3127 37.3543C12.1695 37.3543 8.00016 41.5237 8.00016 46.7085C8.00016 51.8631 12.1788 56.0418 17.3335 56.0418C22.4881 56.0418 26.6668 51.8631 26.6668 46.7085ZM24.844 37.3388C27.5819 39.5424 29.3335 42.9212 29.3335 46.7085C29.3335 50.4781 27.5953 53.8418 24.8766 56.0418H46.6668C51.8215 56.0418 56.0002 51.8631 56.0002 46.7085C56.0002 41.5494 51.8233 37.3644 46.6642 37.3543L24.844 37.3388Z" fill="currentColor"/>
</svg>
