<svg viewBox="0 0 64 64" fill="none" xmlns="http://www.w3.org/2000/svg">
<path d="M54.247 11.167C55.038 11.691 55.983 12 57 12C59.757 12 62 9.757 62 7C62 4.243 59.757 2 57 2C54.243 2 52 4.243 52 7C52 8.017 52.309 8.962 52.833 9.753L44.5 18.086L36.167 9.753C36.691 8.962 37 8.017 37 7C37 4.243 34.757 2 32 2C29.243 2 27 4.243 27 7C27 8.017 27.309 8.962 27.833 9.753L19.5 18.086L11.167 9.753C11.691 8.962 12 8.017 12 7C12 4.243 9.757 2 7 2C4.243 2 2 4.243 2 7C2 9.757 4.243 12 7 12C7.123 12 7.238 11.973 7.358 11.964L13.351 24.235L9.753 27.833C8.962 27.309 8.017 27 7 27C4.243 27 2 29.243 2 32C2 34.757 4.243 37 7 37C9.414 37 11.434 35.279 11.899 33H17.632L21.555 41.032L9.753 52.833C8.962 52.309 8.017 52 7 52C4.243 52 2 54.243 2 57C2 59.757 4.243 62 7 62C9.757 62 12 59.757 12 57C12 56.877 11.973 56.762 11.964 56.642L25.863 49.854L27.939 54.105C27.353 54.924 27 55.919 27 57C27 59.757 29.243 62 32 62C34.757 62 37 59.757 37 57C37 54.586 35.279 52.566 33 52.101V46.368L41.032 42.445L52.833 54.246C52.309 55.038 52 55.983 52 57C52 59.757 54.243 62 57 62C59.757 62 62 59.757 62 57C62 54.243 59.757 52 57 52C56.549 52 56.121 52.079 55.705 52.191L48.651 38.724L54.105 36.06C54.924 36.647 55.919 37 57 37C59.757 37 62 34.757 62 32C62 29.243 59.757 27 57 27C55.983 27 55.038 27.309 54.247 27.833L45.914 19.5L54.247 11.167ZM57 4C58.654 4 60 5.346 60 7C60 8.654 58.654 10 57 10C55.346 10 54 8.654 54 7C54 5.346 55.346 4 57 4ZM34.414 31L39.62 25.794L42.347 31H34.414ZM43.395 33L45.925 37.831L41.436 40.023L34.414 33H43.395ZM33 29.586V13.155L38.648 23.938L33 29.586ZM34.335 11.394C34.475 11.319 34.621 11.254 34.753 11.167L43.086 19.5L40.13 22.456L34.335 11.394ZM32 4C33.654 4 35 5.346 35 7C35 8.654 33.654 10 32 10C30.346 10 29 8.654 29 7C29 5.346 30.346 4 32 4ZM29.247 11.167C29.771 11.515 30.363 11.769 31 11.899V29.586L20.914 19.5L29.247 11.167ZM29.586 31H18.88L15.774 24.64L19.5 20.914L29.586 31ZM4 7C4 5.346 5.346 4 7 4C8.654 4 10 5.346 10 7C10 8.654 8.654 10 7 10C5.346 10 4 8.654 4 7ZM9.311 11.407C9.459 11.329 9.613 11.259 9.753 11.167L18.086 19.5L14.846 22.74L9.311 11.407ZM7 35C5.346 35 4 33.654 4 32C4 30.346 5.346 29 7 29C8.654 29 10 30.346 10 32C10 33.654 8.654 35 7 35ZM11.899 31C11.769 30.363 11.515 29.771 11.167 29.247L14.279 26.135L16.655 31H11.899ZM19.857 33H29.586L23.049 39.537L19.857 33ZM31 34.414V45.12L26.782 47.18L23.977 41.437L31 34.414ZM7 60C5.346 60 4 58.654 4 57C4 55.346 5.346 54 7 54C8.654 54 10 55.346 10 57C10 58.654 8.654 60 7 60ZM11.407 54.689C11.329 54.541 11.259 54.387 11.167 54.247L22.482 42.932L24.985 48.057L11.407 54.689ZM35 57C35 58.654 33.654 60 32 60C30.346 60 29 58.654 29 57C29 55.346 30.346 54 32 54C33.654 54 35 55.346 35 57ZM31 52.101C30.452 52.213 29.948 52.431 29.481 52.706L27.66 48.977L31 47.345V52.101ZM33 44.143V34.414L39.537 40.951L33 44.143ZM60 57C60 58.654 58.654 60 57 60C55.346 60 54 58.654 54 57C54 55.346 55.346 54 57 54C58.654 54 60 55.346 60 57ZM53.274 51.86L42.932 41.518L46.854 39.603L53.274 51.86ZM45.653 33H52.102C52.214 33.548 52.432 34.052 52.707 34.519L47.724 36.953L45.653 33ZM57 29C58.654 29 60 30.346 60 32C60 33.654 58.654 35 57 35C55.346 35 54 33.654 54 32C54 30.346 55.346 29 57 29ZM52.833 29.247C52.485 29.771 52.231 30.363 52.101 31H44.605L41.102 24.312L44.5 20.914L52.833 29.247Z" fill="currentColor"/>
</svg>
