<svg viewBox="0 0 65 65" fill="none" xmlns="http://www.w3.org/2000/svg">
<path d="M32.5 0C14.5797 0 0 14.5797 0 32.5C0 50.4203 14.5797 65 32.5 65C50.4203 65 65 50.4203 65 32.5C65 14.5797 50.4203 0 32.5 0ZM44.1828 33.9531L26.3 44.7562C26.0437 44.9098 25.7511 44.9924 25.4523 44.9956C25.1535 44.9988 24.8593 44.9225 24.5997 44.7744C24.3402 44.6263 24.1247 44.4119 23.9754 44.1531C23.826 43.8942 23.7483 43.6004 23.75 43.3016V21.6984C23.7483 21.3996 23.826 21.1058 23.9754 20.8469C24.1247 20.5881 24.3402 20.3737 24.5997 20.2256C24.8593 20.0775 25.1535 20.0012 25.4523 20.0044C25.7511 20.0076 26.0437 20.0902 26.3 20.2437L44.1828 31.0469C44.4321 31.1987 44.6381 31.4122 44.781 31.6667C44.924 31.9211 44.9991 32.2081 44.9991 32.5C44.9991 32.7919 44.924 33.0789 44.781 33.3334C44.6381 33.5878 44.4321 33.8013 44.1828 33.9531Z" fill="currentColor"/>
</svg>
